<svg width="29" height="30" viewBox="0 0 29 30" fill="none" xmlns="http://www.w3.org/2000/svg">
<path d="M6.70834 3.59254C6.70834 4.24601 6.51457 4.8848 6.15152 5.42814C5.78847 5.97148 5.27246 6.39496 4.66873 6.64503C4.065 6.89511 3.40068 6.96054 2.75976 6.83305C2.11885 6.70556 1.53014 6.39089 1.06806 5.92882C0.60599 5.46674 0.291314 4.87803 0.163829 4.23711C0.0363431 3.5962 0.101773 2.93188 0.351845 2.32815C0.601917 1.72442 1.0254 1.20841 1.56874 0.84536C2.11208 0.482312 2.75087 0.288536 3.40434 0.288536C4.28062 0.288536 5.121 0.636635 5.74062 1.25626C6.36024 1.87588 6.70834 2.71626 6.70834 3.59254Z" fill="#2980B9"/>
<path d="M6.70834 14.6941C6.71307 15.3476 6.52393 15.9878 6.16483 16.5337C5.80573 17.0797 5.29281 17.5069 4.69092 17.7613C4.08902 18.0157 3.4252 18.086 2.78339 17.9632C2.14157 17.8403 1.55059 17.5299 1.08518 17.0712C0.619769 16.6125 0.300828 16.0261 0.168687 15.3862C0.0365468 14.7462 0.0971426 14.0814 0.342812 13.4759C0.588481 12.8704 1.00819 12.3513 1.54887 11.9843C2.08954 11.6173 2.7269 11.4189 3.38034 11.4141H3.40434C4.27648 11.4141 5.11325 11.7589 5.73218 12.3734C6.35111 12.9878 6.70201 13.822 6.70834 14.6941Z" fill="#2980B9"/>
<path d="M28.8867 3.59254C28.8868 4.23585 28.6325 4.85309 28.1793 5.30971C27.7261 5.76632 27.1108 6.02528 26.4675 6.03014H13.4763C12.8299 6.03014 12.2098 5.77332 11.7527 5.31618C11.2956 4.85904 11.0387 4.23903 11.0387 3.59254C11.0387 2.94604 11.2956 2.32603 11.7527 1.86889C12.2098 1.41175 12.8299 1.15494 13.4763 1.15494H26.4667C27.1124 1.15621 27.7312 1.41359 28.1873 1.87059C28.6434 2.32759 28.8995 2.94688 28.8995 3.59254H28.8867Z" fill="#2980B9"/>
<path d="M28.8867 14.6885C28.8868 15.3319 28.6325 15.9491 28.1793 16.4057C27.7261 16.8623 27.1108 17.1213 26.4675 17.1261H13.4763C12.8299 17.1261 12.2098 16.8693 11.7527 16.4122C11.2956 15.955 11.0387 15.335 11.0387 14.6885C11.0387 14.042 11.2956 13.422 11.7527 12.9649C12.2098 12.5078 12.8299 12.2509 13.4763 12.2509H26.4667C27.1104 12.2545 27.7265 12.5131 28.1799 12.97C28.6333 13.4269 28.888 14.0448 28.8867 14.6885Z" fill="#2980B9"/>
<path d="M6.70834 25.7845C6.70834 26.438 6.51457 27.0768 6.15152 27.6201C5.78847 28.1635 5.27246 28.587 4.66873 28.837C4.065 29.0871 3.40068 29.1525 2.75976 29.0251C2.11885 28.8976 1.53014 28.5829 1.06806 28.1208C0.60599 27.6587 0.291314 27.07 0.163829 26.4291C0.0363431 25.7882 0.101773 25.1239 0.351845 24.5201C0.601917 23.9164 1.0254 23.4004 1.56874 23.0374C2.11208 22.6743 2.75087 22.4805 3.40434 22.4805C4.28029 22.4816 5.12006 22.83 5.73946 23.4494C6.35885 24.0688 6.70728 24.9086 6.70834 25.7845Z" fill="#2980B9"/>
<path d="M28.8867 25.7845C28.8859 26.4274 28.6311 27.044 28.1779 27.4999C27.7246 27.9559 27.1096 28.2143 26.4667 28.2189H13.4763C12.8299 28.2189 12.2098 27.9621 11.7527 27.505C11.2956 27.0478 11.0387 26.4278 11.0387 25.7813C11.0387 25.1348 11.2956 24.5148 11.7527 24.0577C12.2098 23.6006 12.8299 23.3437 13.4763 23.3437H26.4667C27.1124 23.345 27.7312 23.6024 28.1873 24.0594C28.6434 24.5164 28.8995 25.1357 28.8995 25.7813L28.8867 25.7845Z" fill="#2980B9"/>
</svg>
