<svg width="15" height="21" viewBox="0 0 15 21" fill="none" xmlns="http://www.w3.org/2000/svg">
<path d="M7.5002 0.614288C4.73117 0.614288 2.48639 2.73045 2.48639 5.34084C2.48639 7.95122 2.48639 8.81739 2.48639 8.81739H4.97258C4.97258 8.81739 4.97258 6.65681 4.97258 5.34084C4.97258 4.02486 6.10425 2.95803 7.5002 2.95803C8.89615 2.95803 10.0278 4.02486 10.0278 5.34084C10.0278 6.65681 10.0278 8.81739 10.0278 8.81739H12.514C12.514 8.81739 12.514 7.95122 12.514 5.34084C12.514 2.73045 10.2692 0.614288 7.5002 0.614288Z" fill="#222222"/>
<path d="M0 9.98929V20.6143H15V9.98929H0ZM8.12155 15.4371V17.3525H6.87845V15.4371C6.50727 15.2342 6.25691 14.8557 6.25691 14.4229C6.25691 13.7767 6.81456 13.251 7.5 13.251C8.18544 13.251 8.74309 13.7767 8.74309 14.4229C8.74309 14.8557 8.49273 15.2342 8.12155 15.4371Z" fill="#222222"/>
</svg>
