<svg width="144" height="144" viewBox="0 0 144 144" fill="none" xmlns="http://www.w3.org/2000/svg">
<path d="M43.6262 9.64368L77.9205 26.1032V66.3952L73.6286 65.1199V30.5469L51.886 21.7393V73.1106L64.64 69.8824L72.9201 73.1703L43.6262 83.2334V9.64368Z" fill="#C94A21"/>
<path d="M100.374 9.6001L72.2946 22.1341L79.2182 25.4021L92.0532 20.9982V72.0507L70.6345 65.3155V30.7624L66.2415 29.0686V69.3008L100.374 82.592V9.6001Z" fill="#222222"/>
<path d="M83.5096 125.953C82.1532 124.538 81.4851 122.566 81.4851 119.995V102.38C81.4851 99.8093 82.1532 97.8365 83.5096 96.4217C84.8659 95.0069 86.8297 94.3095 89.4007 94.3095C91.9718 94.3095 93.9355 95.0069 95.2919 96.4217C96.6482 97.8365 97.3163 99.8093 97.3163 102.38V105.847H92.2349V102.061C92.2349 100.028 91.3442 99.0122 89.5424 99.0122C87.7407 99.0122 86.8499 100.028 86.8499 102.061V120.394C86.8499 122.386 87.7407 123.403 89.5424 123.403C91.3442 123.403 92.2349 122.406 92.2349 120.394V115.372H97.3163V120.015C97.3163 122.586 96.6482 124.558 95.2919 125.973C93.9355 127.388 91.9718 128.085 89.4007 128.085C86.8297 128.085 84.8659 127.368 83.5096 125.953Z" fill="#C94A21"/>
<path d="M103.39 101.742H109.139L113.532 127.607H109.301L108.532 122.466V122.546H103.714L102.945 127.607H98.9969L103.39 101.742ZM108.026 119.039L106.143 106.246H106.062L104.22 119.039H108.026Z" fill="#C94A21"/>
<path d="M119.95 127.049C118.452 126.75 117.318 126.073 116.549 125.017C115.759 123.961 115.374 122.606 115.374 120.952V119.258H119.383V121.211C119.383 122.705 120.112 123.463 121.59 123.463C123.047 123.463 123.776 122.685 123.776 121.131C123.776 120.175 123.513 119.298 123.007 118.521C122.501 117.744 121.549 116.847 120.152 115.811C118.431 114.495 117.217 113.28 116.528 112.144C115.84 111.008 115.496 109.733 115.496 108.298C115.496 106.704 115.881 105.389 116.63 104.353C117.379 103.317 118.492 102.639 119.97 102.32V100.068H123.432V102.32C124.93 102.619 126.043 103.297 126.813 104.333C127.582 105.389 127.967 106.724 127.967 108.378V109.115H123.958V108.119C123.958 106.585 123.25 105.827 121.832 105.827C120.415 105.827 119.707 106.565 119.707 108.039C119.707 108.916 119.97 109.753 120.476 110.49C120.982 111.227 121.934 112.144 123.331 113.2C125.051 114.535 126.266 115.771 126.954 116.907C127.643 118.042 127.987 119.358 127.987 120.832C127.987 122.506 127.602 123.881 126.813 124.957C126.023 126.033 124.889 126.711 123.412 127.01V129.6H119.95V127.049Z" fill="#C94A21"/>
<path d="M130.983 101.742H135.214V112.263H139.769V101.742H144V127.607H139.769V115.97H135.214V127.607H130.983V101.742Z" fill="#C94A21"/>
<path d="M5.62798 99.4906H0V94.8078H16.6208V99.4906H10.9928V127.607H5.62798V99.4906Z" fill="#222222"/>
<path d="M18.7869 101.742H25.0627C27.2491 101.742 28.8484 102.22 29.8404 103.197C30.8324 104.173 31.3385 105.668 31.3385 107.68V109.274C31.3385 111.964 30.4072 113.658 28.565 114.376V114.455C29.5975 114.754 30.3263 115.352 30.7514 116.269C31.1765 117.185 31.379 118.401 31.379 119.935V124.478C31.379 125.216 31.3992 125.814 31.46 126.272C31.5207 126.73 31.6422 127.169 31.8446 127.627H27.5325C27.3706 127.208 27.2693 126.81 27.2289 126.451C27.1681 126.073 27.1479 125.415 27.1479 124.459V119.736C27.1479 118.56 26.9454 117.723 26.5405 117.265C26.1357 116.807 25.4473 116.568 24.4756 116.568H23.018V127.647H18.7869V101.742ZM24.5566 112.821C25.4069 112.821 26.0344 112.622 26.4596 112.184C26.8847 111.765 27.0871 111.068 27.0871 110.071V108.079C27.0871 107.142 26.9049 106.465 26.5608 106.046C26.2166 105.628 25.67 105.409 24.921 105.409H22.9978V112.821H24.5566Z" fill="#222222"/>
<path d="M37.5737 101.742H43.3231L47.7162 127.607H43.4851L42.7158 122.466V122.546H37.8976L37.1283 127.607H33.2009L37.5737 101.742ZM42.2097 119.038L40.327 106.245H40.246L38.4037 119.038H42.2097Z" fill="#222222"/>
<path d="M51.0163 126.312C49.9433 125.196 49.417 123.642 49.417 121.629V107.74C49.417 105.728 49.9433 104.154 51.0163 103.058C52.0893 101.942 53.6278 101.404 55.6523 101.404C57.6767 101.404 59.2356 101.962 60.2883 103.058C61.3612 104.173 61.8876 105.728 61.8876 107.74V110.47H57.8792V107.481C57.8792 105.887 57.1706 105.07 55.7535 105.07C54.3364 105.07 53.6278 105.867 53.6278 107.481V121.928C53.6278 123.502 54.3364 124.3 55.7535 124.3C57.1706 124.3 57.8792 123.502 57.8792 121.928V117.983H61.8876V121.649C61.8876 123.662 61.3612 125.236 60.2883 126.332C59.2153 127.448 57.6767 127.986 55.6523 127.986C53.6278 127.966 52.069 127.428 51.0163 126.312Z" fill="#222222"/>
<path d="M64.4381 101.742H68.6693V112.642L74.0543 101.742H78.2854L73.2648 111.227L78.3866 127.587H73.9531L70.3698 116.069L68.6693 119.357V127.587H64.4381V101.742Z" fill="#222222"/>
</svg>
