<svg width="21" height="16" viewBox="0 0 21 16" fill="none" xmlns="http://www.w3.org/2000/svg">
<path d="M0.676172 1.1035C0.566523 1.32915 0.5 1.57858 0.5 1.845V13.3835C0.5 13.6497 0.566445 13.8992 0.676016 14.1248L7.28863 7.61423L0.676172 1.1035Z" fill="#222222"/>
<path d="M12.8828 8.43014L10.8752 10.3299C10.7607 10.4426 10.6108 10.4989 10.4609 10.4989C10.311 10.4989 10.1611 10.4426 10.0467 10.3299L8.11713 8.43006L1.50439 14.9406C1.73361 15.0487 1.98709 15.1143 2.25775 15.1143H18.7421C19.0127 15.1143 19.266 15.0488 19.4952 14.9408L12.8828 8.43014Z" fill="#222222"/>
<path d="M20.3241 1.10386L13.7115 7.6144L20.3239 14.1251C20.4335 13.8994 20.5 13.65 20.5 13.3836V1.84509C20.5 1.57882 20.4337 1.32944 20.3241 1.10386Z" fill="#222222"/>
<path d="M18.7422 0.114258H2.25785C1.98726 0.114258 1.73394 0.179758 1.50476 0.287719L10.461 9.10615L12.4684 7.20664L19.4956 0.287873C19.2664 0.179835 19.0129 0.114258 18.7422 0.114258Z" fill="#222222"/>
</svg>
