<svg width="17" height="30" viewBox="0 0 17 30" fill="none" xmlns="http://www.w3.org/2000/svg">
<path d="M10.1694 25.4765V29.0885H6.62563V25.7237C4.49516 25.6746 2.40254 25.1504 0.500488 24.1893L1.56361 20.0821C3.4057 21.0578 5.45254 21.5836 7.53676 21.6165C9.6118 21.6165 10.9765 20.8245 10.9765 19.4389C10.9765 18.1029 9.81259 17.2613 7.17999 16.3709C3.33308 15.0845 0.700473 13.3525 0.700473 9.93814C0.700473 6.81813 2.9275 4.39574 6.77442 3.65334V0.288536H10.3205V3.40854C12.1177 3.43064 13.8917 3.81795 15.5346 4.54694L14.4714 8.50533C12.8455 7.7205 11.0629 7.31434 9.25743 7.31734C6.9288 7.31734 6.16966 8.30694 6.16966 9.29654C6.16966 10.4349 7.43517 11.1773 10.4725 12.3149C14.7754 13.7997 16.4961 15.7293 16.4961 18.8965C16.5977 22.0621 14.3203 24.7309 10.1694 25.4765Z" fill="#27AE60"/>
</svg>
